<svg width="27" height="32" viewBox="0 0 27 32" fill="none" xmlns="http://www.w3.org/2000/svg">
<path d="M22.1143 16.9919C22.1301 15.796 22.4554 14.6235 23.0601 13.5833C23.6648 12.5432 24.5291 11.6693 25.5727 11.0429C24.9097 10.1186 24.0351 9.35785 23.0184 8.82121C22.0016 8.28456 20.8707 7.98677 19.7154 7.95148C17.251 7.69893 14.862 9.39117 13.6061 9.39117C12.326 9.39117 10.3925 7.97655 8.31045 8.01837C6.96371 8.06085 5.65121 8.44319 4.50082 9.12814C3.35044 9.81308 2.40141 10.7773 1.74619 11.9268C-1.09199 16.7243 1.02504 23.775 3.74383 27.653C5.10411 29.5519 6.69387 31.6731 8.77407 31.5979C10.8097 31.5154 11.5699 30.3306 14.027 30.3306C16.4614 30.3306 17.1746 31.5979 19.297 31.55C21.4813 31.5154 22.8575 29.6427 24.1701 27.7258C25.1474 26.3727 25.8995 24.8773 26.3984 23.2949C25.1294 22.7709 24.0465 21.8938 23.2846 20.7729C22.5228 19.6521 22.1158 18.3371 22.1143 16.9919Z" fill="white"/>
<path d="M18.1082 5.40166C19.2992 4.00584 19.8859 2.21175 19.7439 0.400391C17.9243 0.586966 16.2436 1.43597 15.0366 2.77823C14.4464 3.43396 13.9944 4.19682 13.7064 5.0232C13.4184 5.84958 13.3 6.72327 13.3581 7.59433C14.2682 7.60348 15.1685 7.4109 15.9913 7.03109C16.8141 6.65128 17.5379 6.09415 18.1082 5.40166Z" fill="white"/>
</svg>
