<svg xmlns="http://www.w3.org/2000/svg" width="240" height="180" viewBox="0 0 240 180" fill="none">
  <path opacity="0.51" fill-rule="evenodd" clip-rule="evenodd" d="M73.3728 142.127C67.0188 139.535 61.6008 136.445 57.3828 132.983C70.3308 122.363 94.5468 115.223 122.279 115.223C150.017 115.223 174.227 122.363 187.175 132.977C181.967 137.249 174.935 140.963 166.577 143.873C164.063 144.749 161.429 145.553 158.687 146.267C155.213 147.191 151.565 147.983 147.767 148.631C139.817 149.993 131.231 150.737 122.279 150.737C111.707 150.737 101.639 149.699 92.5188 147.827C89.4468 147.197 86.4828 146.471 83.6388 145.655C80.9088 144.875 78.2928 144.017 75.8088 143.081C74.9808 142.769 74.1708 142.457 73.3728 142.127Z" fill="#D1D5DB"/>
  <path d="M117.575 50.4222C118.343 50.4162 119.111 50.4102 119.879 50.4102C170.255 50.4102 211.097 69.7602 211.097 93.6342C211.097 99.8142 208.361 105.694 203.423 111.016M33.4122 107.438C32.3922 106.01 31.5282 104.546 30.8322 103.052C29.4102 100.016 28.6602 96.8658 28.6602 93.6318C28.6602 71.6238 63.3762 53.4558 108.274 50.7558" stroke="#374151" stroke-width="1.2756"/>
  <path d="M189.182 76.8745C196.598 81.4345 202.136 86.7145 205.244 92.4565M81.5005 65.2123C89.0245 63.5563 97.1065 62.3683 105.578 61.7383M38.5111 84.8761C44.1931 79.5781 52.1131 74.9101 61.6831 71.1481M49.3747 132.887C41.0347 129.161 35.2627 123.725 33.0547 116.711M184.855 138.287C193.189 134.561 198.967 129.125 201.175 122.111" stroke="#374151" stroke-width="1.2756"/>
  <path d="M119.878 73.5586C69.5022 73.5586 28.6602 92.9086 28.6602 116.783C28.6602 124.283 32.6922 131.339 39.7902 137.489C45.6882 142.601 53.7042 147.089 63.2862 150.683C78.8322 156.521 98.5002 160.007 119.878 160.007C170.26 160.007 211.096 140.657 211.096 116.783C211.096 92.9086 170.26 73.5586 119.878 73.5586Z" stroke="#374151" stroke-width="1.2756"/>
  <path fill-rule="evenodd" clip-rule="evenodd" d="M159.478 25.8727L169.799 29.9917C172.59 31.1059 175.761 29.7487 176.876 26.9563C177.41 25.6143 177.391 24.1148 176.82 22.7874C176.25 21.46 175.176 20.4134 173.835 19.8775L163.515 15.7585C162.173 15.2235 160.673 15.2433 159.346 15.8135C158.018 16.3837 156.971 17.4576 156.435 18.7993C155.321 21.5911 156.686 24.7579 159.478 25.8727Z" fill="#67C16B"/>
  <path d="M177.468 27.1892C178.452 24.7231 177.251 21.9261 174.785 20.9419L163.276 16.3486C160.81 15.3643 158.013 16.5656 157.028 19.0318V19.0318C156.044 21.498 157.246 24.2953 159.712 25.2795L171.221 29.8725C173.687 30.8566 176.484 29.6553 177.468 27.1892V27.1892Z" stroke="#2E7D32" stroke-width="1.2756"/>
  <path fill-rule="evenodd" clip-rule="evenodd" d="M107.731 97.2921L155.639 116.412C157.971 117.342 160.578 117.309 162.885 116.319C164.028 115.83 165.062 115.119 165.929 114.229C166.796 113.34 167.479 112.287 167.939 111.133L193.564 46.9257C194.025 45.7717 194.254 44.5381 194.238 43.2955C194.221 42.053 193.96 40.8258 193.469 39.6843C192.477 37.3775 190.61 35.5589 188.278 34.6281L140.37 15.5085C135.516 13.5717 130.011 15.9357 128.075 20.7897L102.45 84.9969C100.513 89.8509 102.877 95.3553 107.731 97.2921Z" fill="#67C16B"/>
  <path d="M194.088 47.323C195.931 42.7065 193.682 37.4706 189.066 35.6282L140.295 16.1641C135.679 14.3217 130.443 16.5705 128.6 21.187L103.106 85.0684C101.263 89.6849 103.512 94.9209 108.128 96.7633L156.899 116.227C161.516 118.07 166.752 115.821 168.594 111.204L194.088 47.323Z" stroke="#2E7D32" stroke-width="1.2756"/>
  <path fill-rule="evenodd" clip-rule="evenodd" d="M108.978 91.425L158.781 111.301C159.813 111.711 160.965 111.696 161.985 111.258C163.005 110.819 163.81 109.994 164.223 108.964L189.769 44.9508C190.18 43.9192 190.164 42.7668 189.726 41.7465C189.288 40.7263 188.463 39.9215 187.432 39.5088L137.63 19.6332C136.598 19.2225 135.446 19.2379 134.425 19.6761C133.405 20.1142 132.6 20.9393 132.188 21.9702L106.641 85.983C106.23 87.0147 106.246 88.1671 106.684 89.1873C107.122 90.2076 107.947 91.0124 108.978 91.425Z" fill="#67C16B"/>
  <path fill-rule="evenodd" clip-rule="evenodd" d="M171.014 88.7673C165.5 100.269 152.186 105.879 140.078 101.721C142.46 101.715 145.886 101.049 147.026 97.4673C147.494 96.0039 147.716 94.1229 147.937 92.2593C148.572 86.8941 149.19 81.6681 155.576 86.9313C163.592 93.5433 170.156 89.3673 171.014 88.7673Z" fill="#D1D5DB"/>
  <path fill-rule="evenodd" clip-rule="evenodd" d="M170.405 87.3534C164.891 98.8554 151.577 104.465 139.469 100.307C141.851 100.301 145.277 99.6354 146.417 96.0534C146.884 94.59 147.107 92.709 147.327 90.8448C147.962 85.4796 148.581 80.2542 154.967 85.5174C162.983 92.1294 169.541 87.9534 170.405 87.3534Z" fill="#D1D5DB"/>
  <path fill-rule="evenodd" clip-rule="evenodd" d="M171.711 87.1932C171.495 87.7272 171.261 88.2492 171.015 88.7652C170.859 88.8738 170.678 89.2416 170.43 89.7432C169.315 92.007 166.857 96.996 159.249 93.1992C152.51 89.8362 151.815 91.4628 150.524 94.4856C150.062 95.5674 149.524 96.8274 148.605 98.1012C146.559 100.939 142.461 101.719 140.079 101.719C139.683 101.587 139.287 101.443 138.897 101.287L108.963 89.3412C108.233 89.0478 107.649 88.4771 107.339 87.7541C107.029 87.0311 107.017 86.2146 107.307 85.4832L133.047 20.9952C133.339 20.2651 133.908 19.6806 134.631 19.3701C135.353 19.0596 136.169 19.0485 136.899 19.3392L187.533 39.5472C188.263 39.8393 188.847 40.4088 189.158 41.1309C189.468 41.853 189.479 42.6687 189.189 43.3992L171.711 87.1932Z" fill="white"/>
  <path fill-rule="evenodd" clip-rule="evenodd" d="M147.581 26.8882L175.349 37.9702C175.757 38.1335 176.193 38.2148 176.632 38.2095C177.071 38.2042 177.505 38.1125 177.909 37.9395C178.313 37.7665 178.679 37.5156 178.985 37.2012C179.292 36.8868 179.534 36.5151 179.697 36.1072L181.254 32.2066C181.582 31.3813 181.571 30.4602 181.224 29.6428C180.87 28.8283 180.21 28.1862 179.385 27.856L151.617 16.774C150.792 16.446 150.317 16.6528 149.5 17C148.686 17.3537 147.597 17.8183 147.267 18.6424L145.71 22.5436C145.382 23.3678 145.395 24.2886 145.745 25.1033C146.096 25.9181 146.756 26.5601 147.581 26.8882Z" fill="#67C16B"/>
  <path d="M181.736 32.7132C182.351 31.1744 181.601 29.429 180.062 28.8149L151.647 17.4752C150.108 16.8611 148.363 17.6107 147.749 19.1496L146.409 22.5073C145.795 24.0462 146.544 25.7915 148.083 26.4056L176.498 37.7453C178.037 38.3595 179.782 37.6098 180.396 36.071L181.736 32.7132Z" stroke="#2E7D32" stroke-width="1.2756"/>
  <path fill-rule="evenodd" clip-rule="evenodd" d="M138.661 49.0953C142.117 41.7513 151.033 38.6793 158.569 42.2313C166.099 45.7833 169.405 54.6093 165.949 61.9467C165.679 62.5227 165.379 63.0627 165.049 63.5787C161.977 68.3787 156.355 70.8687 150.727 70.1727C149.149 69.9747 147.565 69.5307 146.041 68.8107C145.693 68.6427 145.321 68.5287 144.937 68.5047C144.043 68.4447 143.149 68.4627 142.273 68.5647C141.061 68.7087 139.861 68.1867 139.183 67.1727C136.963 63.8247 136.177 59.6247 137.191 55.5987C137.251 55.3587 137.287 55.1127 137.293 54.8607C137.341 52.9167 137.779 50.9553 138.661 49.0953Z" fill="#67C16B"/>
  <path d="M158.569 42.2313C151.033 38.6793 142.117 41.7513 138.661 49.0953C137.779 50.9553 137.341 52.9173 137.293 54.8613C137.287 55.1133 137.251 55.3593 137.191 55.5993C136.177 59.6253 136.963 63.8247 139.183 67.1727C139.861 68.1867 141.061 68.7087 142.273 68.5647C143.149 68.4627 144.043 68.4447 144.937 68.5047C145.321 68.5287 145.693 68.6427 146.041 68.8107C147.565 69.5307 149.149 69.9747 150.727 70.1727C156.355 70.8687 161.977 68.3787 165.049 63.5787C165.379 63.0627 165.679 62.5227 165.949 61.9467C169.405 54.6087 166.099 45.7833 158.569 42.2313Z" stroke="#2E7D32" stroke-width="1.2756"/>
  <path fill-rule="evenodd" clip-rule="evenodd" d="M135.578 129.449C143.21 129.449 150.182 132.395 155.426 137.213C160.574 141.935 164.048 148.463 164.816 155.765C160.58 156.887 156.14 157.847 151.52 158.639C141.836 160.301 131.378 161.207 120.482 161.207C107.606 161.207 95.3477 159.941 84.2417 157.661C80.6048 156.92 76.998 156.037 73.4297 155.015C74.2217 149.009 76.8377 143.561 80.7197 139.247C81.0677 138.851 81.4337 138.461 81.8117 138.083C87.1457 132.755 94.4897 129.449 102.578 129.449H135.578Z" fill="white"/>
  <path d="M155.426 137.213C150.182 132.395 143.21 129.449 135.578 129.449H102.578C94.4897 129.449 87.1457 132.755 81.8117 138.083C81.4337 138.461 81.0677 138.851 80.7197 139.247C76.8377 143.561 74.2217 149.009 73.4297 155.015C76.998 156.037 80.6048 156.92 84.2417 157.661C95.3477 159.941 107.606 161.207 120.482 161.207C131.378 161.207 141.836 160.301 151.52 158.639C156.14 157.847 160.58 156.887 164.816 155.765C164.048 148.463 160.574 141.935 155.426 137.213Z" stroke="#374151" stroke-width="1.2756"/>
  <path fill-rule="evenodd" clip-rule="evenodd" d="M39.1662 112.599C39.5502 112.083 40.0482 111.712 40.5822 111.496C40.6842 111.256 40.8042 111.021 40.9662 110.799C41.9442 109.485 43.6602 109.084 44.7822 109.912L49.8642 113.662C50.2002 113.554 50.5482 113.518 50.9022 113.56L65.2482 115.27C65.2902 115.276 65.3322 115.288 65.3742 115.294L65.8362 115.204C69.5682 114.49 73.1982 116.956 73.9122 120.681L74.5902 124.215C75.3042 127.941 72.8442 131.578 69.1122 132.292L67.8042 132.544C64.0722 133.258 60.4422 130.791 59.7282 127.065L59.2542 124.612L49.7202 123.472C49.4742 123.442 49.2462 123.376 49.0242 123.28C48.6822 123.22 48.3582 123.088 48.0762 122.878L39.4422 116.512C38.3202 115.678 38.1942 113.919 39.1662 112.599Z" fill="white"/>
  <path d="M40.5822 111.496C40.0482 111.712 39.5502 112.083 39.1662 112.599C38.1942 113.919 38.3202 115.678 39.4422 116.512L48.0762 122.878C48.3582 123.088 48.6822 123.22 49.0242 123.28C49.2462 123.376 49.4742 123.442 49.7202 123.472L59.2542 124.612L59.7282 127.065C60.4422 130.791 64.0722 133.258 67.8042 132.544L69.1122 132.292C72.8442 131.578 75.3042 127.941 74.5902 124.215L73.9122 120.681C73.1982 116.956 69.5682 114.49 65.8362 115.204L65.3742 115.294C65.3322 115.288 65.2902 115.276 65.2482 115.27L50.9022 113.56C50.5482 113.518 50.2002 113.554 49.8642 113.662L44.7822 109.912C43.6602 109.084 41.9442 109.485 40.9662 110.799C40.8042 111.021 40.6842 111.256 40.5822 111.496Z" stroke="#374151" stroke-width="1.2756"/>
  <path fill-rule="evenodd" clip-rule="evenodd" d="M63.8913 151.885C62.8833 151.507 61.8993 151.123 60.9273 150.721L58.1253 136.099L57.3393 132.001C57.0033 130.249 58.1613 128.539 59.9193 128.203L60.0393 128.179L74.7213 125.365L74.7513 125.359C76.5033 125.023 78.2133 126.181 78.5493 127.933L79.3353 132.037L80.7213 139.249L84.2193 157.501C84.2313 157.555 84.2373 157.609 84.2433 157.663C80.6063 156.921 76.9996 156.039 73.4313 155.017C70.1073 154.069 66.9213 153.025 63.8913 151.885Z" fill="white"/>
  <path d="M60.9273 150.721C61.8993 151.123 62.8833 151.507 63.8913 151.885C66.9213 153.025 70.1073 154.069 73.4313 155.017C76.9996 156.039 80.6063 156.921 84.2433 157.663C84.2373 157.609 84.2313 157.555 84.2193 157.501L80.7213 139.249L79.3353 132.037L78.5493 127.933C78.2133 126.181 76.5033 125.023 74.7513 125.359L74.7213 125.365L60.0393 128.179L59.9193 128.203C58.1613 128.539 57.0033 130.249 57.3393 132.001L58.1253 136.099L60.9273 150.721Z" stroke="#374151" stroke-width="1.2756"/>
  <path fill-rule="evenodd" clip-rule="evenodd" d="M58.1211 136.096L79.3353 132.03L78.5493 127.928C78.4691 127.509 78.3072 127.111 78.0728 126.754C77.8385 126.398 77.5363 126.092 77.1835 125.853C76.8307 125.613 76.4342 125.446 76.0167 125.36C75.5992 125.274 75.1688 125.271 74.7501 125.351L59.9121 128.196C59.4934 128.276 59.0946 128.438 58.7384 128.672C58.3823 128.906 58.0758 129.208 57.8365 129.561C57.5972 129.914 57.4299 130.311 57.3439 130.728C57.258 131.146 57.2552 131.576 57.3357 131.995L58.1211 136.096Z" fill="#D1D5DB"/>
  <path d="M78.6863 125.246L57.4727 129.312L58.6307 135.35L79.8437 131.283L78.6863 125.246Z" stroke="#374151" stroke-width="1.2756"/>
  <path fill-rule="evenodd" clip-rule="evenodd" d="M61.4763 130.648C61.2792 130.649 61.0842 130.687 60.9022 130.763C60.7202 130.838 60.5548 130.949 60.4156 131.088C60.2763 131.228 60.1659 131.393 60.0905 131.575C60.0152 131.757 59.9765 131.952 59.9766 132.149C59.9766 132.346 60.0155 132.541 60.091 132.723C60.1665 132.905 60.277 133.071 60.4164 133.21C60.5558 133.349 60.7212 133.46 60.9033 133.535C61.0853 133.61 61.2804 133.649 61.4775 133.649C61.8754 133.649 62.2569 133.491 62.5382 133.209C62.8194 132.928 62.9773 132.546 62.9772 132.148C62.977 131.75 62.8188 131.369 62.5373 131.087C62.2558 130.806 61.8742 130.648 61.4763 130.648Z" fill="#D1D5DB"/>
  <path fill-rule="evenodd" clip-rule="evenodd" d="M196.312 116.512L187.678 122.878C187.39 123.088 187.072 123.22 186.73 123.28C186.508 123.376 186.28 123.442 186.034 123.472L176.5 124.612L176.026 127.065C175.312 130.791 171.682 133.258 167.95 132.544L166.636 132.292C162.91 131.578 160.444 127.941 161.164 124.215L161.836 120.681C162.556 116.956 166.186 114.49 169.912 115.204L170.38 115.294C170.422 115.288 170.464 115.276 170.506 115.27L184.852 113.56C185.206 113.518 185.554 113.554 185.89 113.662L190.972 109.912C192.094 109.084 193.81 109.485 194.788 110.799C194.95 111.021 195.07 111.256 195.172 111.496C195.7 111.712 196.204 112.083 196.588 112.599C197.56 113.919 197.434 115.678 196.312 116.512Z" fill="white"/>
  <path d="M187.678 122.878L196.312 116.512C197.434 115.678 197.56 113.919 196.588 112.599C196.225 112.11 195.735 111.728 195.172 111.496C195.07 111.256 194.95 111.021 194.788 110.799C193.81 109.485 192.094 109.084 190.972 109.912L185.89 113.662C185.554 113.554 185.206 113.518 184.852 113.56L170.506 115.27C170.464 115.276 170.422 115.288 170.38 115.294L169.912 115.204C166.186 114.49 162.556 116.956 161.836 120.681L161.164 124.215C160.444 127.941 162.91 131.578 166.636 132.292L167.95 132.544C171.682 133.258 175.312 130.791 176.026 127.065L176.5 124.612L186.034 123.472C186.28 123.442 186.508 123.376 186.73 123.28C187.072 123.22 187.39 123.088 187.678 122.878Z" stroke="#374151" stroke-width="1.2756"/>
  <path fill-rule="evenodd" clip-rule="evenodd" d="M151.521 158.641C151.461 158.275 151.467 157.891 151.539 157.501L155.427 137.215L156.423 132.037L157.209 127.933C157.545 126.181 159.255 125.023 161.007 125.359L161.037 125.365L175.719 128.179L175.839 128.203C177.597 128.539 178.755 130.249 178.419 132.001L177.633 136.099L174.423 152.845C171.363 153.913 168.153 154.891 164.817 155.767C160.581 156.889 156.141 157.849 151.521 158.641Z" fill="white"/>
  <path d="M151.539 157.501C151.467 157.891 151.461 158.275 151.521 158.641C156.141 157.849 160.581 156.889 164.817 155.767C168.153 154.891 171.363 153.913 174.423 152.845L177.633 136.099L178.419 132.001C178.755 130.249 177.597 128.539 175.839 128.203L175.719 128.179L161.037 125.365L161.007 125.359C159.255 125.023 157.545 126.181 157.209 127.933L156.423 132.037L155.427 137.215L151.539 157.501Z" stroke="#374151" stroke-width="1.2756"/>
  <path fill-rule="evenodd" clip-rule="evenodd" d="M175.841 128.196L161.004 125.351C160.585 125.271 160.155 125.274 159.737 125.36C159.319 125.446 158.923 125.613 158.57 125.852C158.217 126.092 157.915 126.398 157.681 126.754C157.446 127.111 157.285 127.51 157.205 127.928L156.418 132.029L177.632 136.096L178.418 131.995C178.499 131.576 178.496 131.146 178.41 130.728C178.324 130.311 178.157 129.914 177.917 129.561C177.678 129.209 177.371 128.906 177.015 128.672C176.659 128.438 176.26 128.276 175.841 128.196Z" fill="#D1D5DB"/>
  <path d="M155.914 131.283L177.128 135.35L178.285 129.313L157.071 125.246L155.914 131.283Z" stroke="#374151" stroke-width="1.2756"/>
  <path fill-rule="evenodd" clip-rule="evenodd" d="M174.277 130.648C173.88 130.648 173.498 130.806 173.217 131.088C172.935 131.369 172.777 131.751 172.777 132.148C172.777 132.546 172.935 132.928 173.217 133.209C173.498 133.49 173.88 133.648 174.277 133.648C174.675 133.648 175.057 133.49 175.338 133.209C175.619 132.928 175.777 132.546 175.777 132.148C175.777 131.751 175.619 131.369 175.338 131.088C175.057 130.806 174.675 130.648 174.277 130.648Z" fill="#D1D5DB"/>
  <path fill-rule="evenodd" clip-rule="evenodd" d="M85.475 101.848C82.661 101.848 80.375 104.134 80.375 106.948C80.375 109.762 82.661 112.048 85.475 112.048C88.289 112.048 90.575 109.762 90.575 106.948C90.575 104.134 88.289 101.848 85.475 101.848Z" fill="white"/>
  <path d="M85.475 101.848C82.661 101.848 80.375 104.134 80.375 106.948C80.375 109.762 82.661 112.048 85.475 112.048C88.289 112.048 90.575 109.762 90.575 106.948C90.575 104.134 88.289 101.848 85.475 101.848Z" stroke="#374151" stroke-width="1.2756"/>
  <path fill-rule="evenodd" clip-rule="evenodd" d="M147.877 101.848C145.063 101.848 142.777 104.134 142.777 106.948C142.777 109.762 145.063 112.048 147.877 112.048C150.691 112.048 152.977 109.762 152.977 106.948C152.977 104.134 150.691 101.848 147.877 101.848Z" fill="white"/>
  <path d="M147.877 101.848C145.063 101.848 142.777 104.134 142.777 106.948C142.777 109.762 145.063 112.048 147.877 112.048C150.691 112.048 152.977 109.762 152.977 106.948C152.977 104.134 150.691 101.848 147.877 101.848Z" stroke="#374151" stroke-width="1.2756"/>
  <path fill-rule="evenodd" clip-rule="evenodd" d="M117.575 135.447C119.483 135.447 121.313 134.691 122.669 133.341C124.017 131.988 124.775 130.157 124.775 128.247V125.247C124.775 123.339 124.019 121.509 122.669 120.153C121.316 118.805 119.485 118.047 117.575 118.047C115.667 118.047 113.837 118.803 112.481 120.153C111.133 121.505 110.375 123.337 110.375 125.247V128.247C110.375 130.155 111.131 131.985 112.481 133.341C113.834 134.689 115.665 135.446 117.575 135.447Z" fill="white"/>
  <path d="M125.416 118.684H111.016V134.808H125.416V118.684Z" stroke="#374151" stroke-width="1.2756"/>
  <path fill-rule="evenodd" clip-rule="evenodd" d="M37.1758 82.0469C35.5198 82.0469 34.1758 83.3909 34.1758 85.0469C34.1758 86.7029 35.5198 88.0469 37.1758 88.0469C38.8318 88.0469 40.1758 86.7029 40.1758 85.0469C40.1758 83.3909 38.8318 82.0469 37.1758 82.0469Z" fill="#374151"/>
  <path fill-rule="evenodd" clip-rule="evenodd" d="M88.4766 49.9492C86.8206 49.9492 85.4766 51.2932 85.4766 52.9492C85.4766 54.6052 86.8206 55.9492 88.4766 55.9492C90.1326 55.9492 91.4766 54.6052 91.4766 52.9492C91.4766 51.2932 90.1326 49.9492 88.4766 49.9492Z" fill="white"/>
  <path d="M88.4766 49.9492C86.8206 49.9492 85.4766 51.2932 85.4766 52.9492C85.4766 54.6052 86.8206 55.9492 88.4766 55.9492C90.1326 55.9492 91.4766 54.6052 91.4766 52.9492C91.4766 51.2932 90.1326 49.9492 88.4766 49.9492Z" stroke="#374151" stroke-width="1.2756"/>
  <path fill-rule="evenodd" clip-rule="evenodd" d="M207.181 78.4492L211.339 85.6492H203.023L207.181 78.4492Z" fill="#67C16B"/>
  <path d="M211.339 85.6492L207.181 78.4492L203.023 85.6492H211.339Z" stroke="#2E7D32" stroke-width="1.2756"/>
  <path d="M87.5807 152.727C86.9987 154.143 86.5967 155.589 86.3867 157.047M148.787 154.527C149.369 155.943 149.765 157.389 149.981 158.847" stroke="#374151" stroke-width="0.4254"/>
  <path d="M151.416 57.4345L149.503 56.7487C149.745 56.0929 149.997 55.5751 150.257 55.1965C150.521 54.8176 150.854 54.4919 151.239 54.2365C151.625 53.9803 152.114 53.7067 152.706 53.4157C153.137 53.2063 153.533 53.0077 153.895 52.8199C154.253 52.6367 154.583 52.4031 154.875 52.1263C155.16 51.8497 155.386 51.4783 155.553 51.0115C155.723 50.5381 155.784 50.0995 155.735 49.6951C155.698 49.3033 155.538 48.9332 155.278 48.6373C155.022 48.3367 154.654 48.1003 154.174 47.9281C153.787 47.7872 153.377 47.7228 152.965 47.7385C152.57 47.7503 152.187 47.8748 151.861 48.0973C151.536 48.3133 151.284 48.6607 151.105 49.1383L149.202 48.4555C149.493 47.6857 149.924 47.0893 150.493 46.6663C151.07 46.2463 151.73 46.0027 152.473 45.9367C153.217 45.8707 153.983 45.9787 154.772 46.2613C155.643 46.5733 156.327 46.9969 156.824 47.5315C157.328 48.0679 157.636 48.6895 157.747 49.3945C157.86 50.0929 157.773 50.8435 157.485 51.6457C157.264 52.2637 156.933 52.7869 156.492 53.2177C156.052 53.6506 155.555 54.0229 155.016 54.3247C154.461 54.6379 153.891 54.9217 153.306 55.1749C152.804 55.3897 152.408 55.6927 152.121 56.0851C151.822 56.4986 151.585 56.9528 151.416 57.4345ZM148.251 59.9803C148.362 59.6719 148.551 59.4457 148.82 59.3023C149.088 59.1583 149.404 59.1511 149.768 59.2819C150.138 59.4139 150.381 59.6215 150.497 59.9029C150.612 60.1843 150.615 60.4795 150.504 60.7879C150.409 61.0712 150.208 61.3068 149.943 61.4461C149.675 61.5901 149.356 61.5955 148.985 61.4629C148.622 61.3321 148.382 61.1263 148.266 60.8449C148.151 60.5695 148.146 60.2596 148.251 59.9803Z" fill="white"/>
  <path fill-rule="evenodd" clip-rule="evenodd" d="M129.207 78.542C140.547 86.27 145.707 100.34 142.089 113.558C136.485 120.656 127.377 125.276 117.087 125.276C114.409 125.279 111.74 124.96 109.137 124.328C108.747 124.232 108.369 124.13 107.985 124.028C107.955 124.022 107.931 124.01 107.901 124.004C100.935 121.94 94.9709 117.602 90.8429 111.866C90.7829 111.788 90.7349 111.71 90.6809 111.632C87.8429 107.342 86.2109 102.308 86.2109 96.932C86.2109 95.072 86.4089 93.254 86.7809 91.49C90.5587 92.5876 94.475 93.1352 98.4089 93.116C106.923 93.116 114.669 90.638 120.405 86.588C123.361 84.558 125.856 81.9266 127.725 78.866C127.737 78.842 127.743 78.824 127.761 78.806C128.085 78.332 128.727 78.212 129.207 78.542Z" fill="white"/>
  <path d="M142.089 113.558C145.707 100.34 140.547 86.27 129.207 78.542C128.727 78.212 128.085 78.332 127.761 78.806C127.743 78.824 127.737 78.842 127.725 78.866C125.856 81.9266 123.361 84.558 120.405 86.588C114.669 90.638 106.923 93.116 98.4089 93.116C94.4729 93.134 90.5549 92.588 86.7809 91.49C86.4089 93.254 86.2109 95.072 86.2109 96.932C86.2109 102.308 87.8429 107.342 90.6809 111.632C90.7349 111.71 90.7829 111.788 90.8429 111.866C94.9709 117.602 100.935 121.94 107.901 124.004C107.931 124.01 107.955 124.022 107.985 124.028C108.369 124.13 108.747 124.232 109.137 124.328C111.74 124.96 114.409 125.279 117.087 125.276C127.377 125.276 136.485 120.656 142.089 113.558Z" stroke="#374151" stroke-width="1.2756"/>
  <path fill-rule="evenodd" clip-rule="evenodd" d="M98.4062 93.6805C96.8123 93.6754 95.22 93.5833 93.6362 93.4045C92.1684 97.447 91.421 101.716 91.4282 106.016C91.4282 108.734 91.7222 111.44 92.3042 114.092C87.1846 108.251 84.3653 100.746 84.3722 92.9785C84.3722 92.4085 84.3962 91.8385 84.4262 91.2745C83.6642 90.9985 82.9142 90.7045 82.1882 90.3865C81.3062 89.9965 80.4482 89.5765 79.6202 89.1265C78.8998 88.7256 78.3308 88.0997 78.0002 87.3445C77.1662 85.4305 78.0362 83.2045 79.9502 82.3705C82.4957 81.2419 85.1577 80.3968 87.8882 79.8505C95.3702 64.3765 113.58 57.3745 129.498 63.8485C135.443 66.2528 140.534 70.3759 144.123 75.6901C147.711 81.0044 149.632 87.2683 149.64 93.6805C149.652 101.294 146.94 108.662 141.996 114.458C145.704 101.456 140.874 87.5245 129.912 79.6045C129.882 79.5865 129.852 79.5625 129.822 79.5385C128.976 78.9985 127.848 79.2445 127.302 80.0965C125.476 82.8699 123.131 85.2638 120.396 87.1465C114.66 91.1965 106.92 93.6805 98.4062 93.6805Z" fill="#374151"/>
  <path d="M93.636 93.4045C95.22 93.5845 96.816 93.6745 98.406 93.6805C106.92 93.6805 114.66 91.1965 120.396 87.1465C123.132 85.2625 125.478 82.8685 127.302 80.0965C127.562 79.6886 127.974 79.4007 128.447 79.2961C128.919 79.1915 129.414 79.2787 129.822 79.5385C129.852 79.5625 129.882 79.5865 129.912 79.6045C140.874 87.5245 145.704 101.456 141.996 114.458C146.94 108.665 149.651 101.296 149.64 93.6805C149.632 87.2683 147.71 81.0044 144.122 75.6901C140.534 70.3759 135.442 66.2528 129.498 63.8485C113.58 57.3745 95.37 64.3765 87.888 79.8505C85.1576 80.3968 82.4956 81.2419 79.95 82.3705C79.4952 82.5688 79.0839 82.8549 78.7397 83.2123C78.3956 83.5697 78.1252 83.9914 77.9441 84.4533C77.763 84.9153 77.6747 85.4084 77.6843 85.9045C77.6939 86.4006 77.8012 86.8899 78 87.3445C78.33 88.1005 78.9 88.7245 79.62 89.1265C80.448 89.5765 81.306 89.9965 82.188 90.3865C82.914 90.7045 83.664 90.9985 84.426 91.2745C84.396 91.8385 84.372 92.4085 84.372 92.9785C84.3651 100.746 87.1845 108.251 92.304 114.092C91.722 111.44 91.428 108.734 91.428 106.016C91.4209 101.716 92.1682 97.447 93.636 93.4045Z" stroke="#374151" stroke-width="0.6"/>
  <path d="M117.087 68.582C100.035 68.582 86.2109 81.272 86.2109 96.932C86.2109 112.586 100.035 125.276 117.087 125.276C134.139 125.276 147.957 112.586 147.957 96.932C147.957 81.272 134.139 68.582 117.087 68.582Z" stroke="#374151" stroke-width="1.2756"/>
  <path d="M116.365 135.952C114.636 138.003 112.75 139.916 110.725 141.676C110.581 141.802 110.389 141.934 110.209 141.868C110.113 141.838 110.047 141.76 109.981 141.682C107.065 138.094 105.571 133.378 105.895 128.77M120.253 135.952C121.983 138.001 123.869 139.915 125.893 141.676C126.043 141.802 126.229 141.934 126.409 141.868C126.505 141.838 126.571 141.76 126.637 141.682C129.553 138.094 131.047 133.378 130.723 128.77" stroke="#374151" stroke-width="1.2"/>
  <path fill-rule="evenodd" clip-rule="evenodd" d="M51.3213 56.9119C45.2193 48.8419 41.4933 42.3259 42.4773 41.3239C43.0473 40.7395 45.1425 42.1315 47.3925 43.6267C49.0251 44.7115 50.7393 45.8509 52.0113 46.3279C60.1413 49.3819 66.0573 42.7519 66.0573 42.7519C66.0573 42.7519 64.9113 51.8839 67.6773 58.2019C70.4433 64.5199 80.9313 70.0279 80.9313 70.0279C80.9313 70.0279 63.5253 73.0579 51.3213 56.9119Z" fill="#D1D5DB"/>
  <path opacity="0.51" fill-rule="evenodd" clip-rule="evenodd" d="M91.3438 36.7983C91.3438 36.7983 96.1677 34.6503 97.5777 31.9203C98.9878 29.1903 98.7418 25.0923 98.7418 25.0923C98.7418 25.0923 101.178 28.2123 104.886 27.0903C105.462 26.9139 106.256 26.4573 107.011 26.0223C108.056 25.4205 109.029 24.8595 109.266 25.1343C109.674 25.6083 107.832 28.3983 104.886 31.8123C98.9937 38.6463 91.3438 36.7983 91.3438 36.7983Z" fill="#D1D5DB"/>
  <path fill-rule="evenodd" clip-rule="evenodd" d="M128.977 105.748C129.691 105.748 130.381 105.466 130.885 104.956C131.395 104.452 131.677 103.762 131.677 103.048C131.677 102.334 131.395 101.644 130.885 101.14C130.635 100.888 130.338 100.689 130.011 100.553C129.683 100.417 129.332 100.347 128.977 100.348C128.263 100.348 127.573 100.63 127.069 101.14C126.559 101.644 126.277 102.334 126.277 103.048C126.277 103.762 126.559 104.452 127.069 104.956C127.573 105.466 128.263 105.748 128.977 105.748Z" fill="#374151"/>
  <path fill-rule="evenodd" clip-rule="evenodd" d="M105.575 105.748C106.289 105.748 106.979 105.466 107.483 104.956C107.993 104.452 108.275 103.762 108.275 103.048C108.275 102.334 107.993 101.644 107.483 101.14C107.233 100.888 106.936 100.689 106.608 100.553C106.281 100.417 105.93 100.347 105.575 100.348C104.861 100.348 104.171 100.63 103.667 101.14C103.157 101.644 102.875 102.334 102.875 103.048C102.875 103.762 103.157 104.452 103.667 104.956C104.171 105.466 104.861 105.748 105.575 105.748Z" fill="#374151"/>
  <path fill-rule="evenodd" clip-rule="evenodd" d="M84.2413 87.2617C83.1465 87.2617 82.0965 87.6966 81.3223 88.4708C80.5482 89.2449 80.1133 90.2949 80.1133 91.3897C80.1133 93.6757 81.9613 95.5237 84.2413 95.5237C86.5273 95.5237 88.3753 93.6757 88.3753 91.3897C88.3753 89.1097 86.5273 87.2617 84.2413 87.2617Z" fill="#374151"/>
</svg>