<svg width="28" height="32" viewBox="0 0 28 32" fill="none" xmlns="http://www.w3.org/2000/svg">
<path d="M13.1454 15.2998L0.515625 29.0073C0.516811 29.0097 0.516811 29.0134 0.517997 29.0158C0.905894 30.5042 2.23447 31.5996 3.81216 31.5996C4.44323 31.5996 5.03516 31.4249 5.54286 31.1192L5.5832 31.095L19.799 22.7067L13.1454 15.2998Z" fill="#EA4335"/>
<path d="M25.9194 12.9655L25.9075 12.957L19.77 9.31901L12.8555 15.6111L19.7949 22.7051L25.8992 19.1035C26.9692 18.5115 27.6964 17.3579 27.6964 16.0284C27.6964 14.7062 26.9799 13.5586 25.9194 12.9655Z" fill="#FBBC04"/>
<path d="M0.514688 2.99142C0.438769 3.2777 0.398438 3.57854 0.398438 3.88908V28.1114C0.398438 28.4219 0.438769 28.7227 0.515874 29.0078L13.5786 15.6509L0.514688 2.99142Z" fill="#4285F4"/>
<path d="M13.2391 16L19.7752 9.31728L5.57608 0.898678C5.06007 0.58207 4.45746 0.400113 3.81334 0.400113C2.23566 0.400113 0.904707 1.49793 0.516811 2.98756C0.516811 2.98877 0.515625 2.98998 0.515625 2.9912L13.2391 16Z" fill="#34A853"/>
</svg>
