<svg width="125" height="80" viewBox="0 0 125 80" fill="none" xmlns="http://www.w3.org/2000/svg">
<path fill-rule="evenodd" clip-rule="evenodd" d="M1.3125 -35H60.2381L88.7745 -6.46347C96.8768 1.6388 96.8768 14.8972 88.7745 22.9996C80.6723 31.1019 67.4139 31.1019 59.3116 22.9996L1.3125 -35Z" fill="#E5E7EB"/>
<path fill-rule="evenodd" clip-rule="evenodd" d="M125 -10V115.001H0L125 -10Z" fill="#E5E7EB"/>
<path fill-rule="evenodd" clip-rule="evenodd" d="M52.6328 114.999H97.0771V92.7769C97.0771 80.5547 87.0772 70.5547 74.855 70.5547H74.8549C62.6328 70.5547 52.6329 80.5547 52.6329 92.7769L52.6328 114.999Z" fill="#22C55E"/>
<path fill-rule="evenodd" clip-rule="evenodd" d="M74.8594 114.996H119.304V62.3942C119.304 50.1719 109.304 40.1719 97.0816 40.1719H97.0815C84.8593 40.1719 74.8594 50.1719 74.8594 62.3942L74.8594 114.996Z" fill="#265529"/>
<path fill-rule="evenodd" clip-rule="evenodd" d="M74.8594 114.999H97.0814V92.7769C97.0814 80.5547 87.0816 70.5547 74.8594 70.5547V114.999Z" fill="#42A547"/>
<path fill-rule="evenodd" clip-rule="evenodd" d="M125 25.0005V-35H65L77.9167 -22.0832H112.083V12.0837L125 25.0005Z" fill="#42A547"/>
<path fill-rule="evenodd" clip-rule="evenodd" d="M66.8774 57.253C71.1017 57.253 74.5262 53.8285 74.5262 49.604C74.5262 45.3797 71.1018 41.9551 66.8774 41.9551C62.6531 41.9551 59.2285 45.3797 59.2285 49.604C59.2286 53.8285 62.6531 57.253 66.8774 57.253ZM66.8774 62.9973C74.2743 62.9973 80.2705 57.0009 80.2705 49.6041C80.2705 42.2072 74.2742 36.2109 66.8774 36.2109C59.4807 36.2109 53.4844 42.2072 53.4844 49.6041C53.4844 57.0009 59.4808 62.9973 66.8774 62.9973Z" fill="white"/>
<path fill-rule="evenodd" clip-rule="evenodd" d="M86.3051 17.9841L86.3052 17.9839C88.5978 15.6912 88.5978 11.9397 86.3052 9.64676L77.5512 0.892841C75.2584 -1.39988 71.5068 -1.39988 69.2142 0.892841H69.214C66.9213 3.18556 66.9213 6.93719 69.214 9.23011L77.968 17.9842C80.2608 20.2767 84.0123 20.2767 86.3051 17.9841ZM64.9411 -3.38009H64.9413C67.234 -5.67281 67.234 -9.42434 64.9413 -11.7172L41.6586 -35H24.9844L56.6042 -3.38005C58.8969 -1.08728 62.6485 -1.08728 64.9411 -3.38009Z" fill="#22C55E"/>
<path fill-rule="evenodd" clip-rule="evenodd" d="M116.646 33.0234C118.573 33.0234 120.135 34.5858 120.135 36.5131C120.135 38.4403 118.573 40.0027 116.646 40.0027C114.719 40.0027 113.156 38.4403 113.156 36.5131C113.156 34.5858 114.719 33.0234 116.646 33.0234Z" fill="#42A547"/>
<path fill-rule="evenodd" clip-rule="evenodd" d="M58.2552 4.74219C60.1824 4.74219 61.7448 6.3046 61.7448 8.23182C61.7448 10.159 60.1824 11.7214 58.2552 11.7214C56.328 11.7214 54.7656 10.159 54.7656 8.23182C54.7656 6.3046 56.328 4.74219 58.2552 4.74219Z" fill="#22C55E"/>
<path fill-rule="evenodd" clip-rule="evenodd" d="M96.2273 34.1495C108.961 34.1495 119.283 23.8272 119.283 11.0938H73.1719C73.1719 23.8271 83.4942 34.1495 96.2273 34.1495Z" fill="#030712"/>
<path fill-rule="evenodd" clip-rule="evenodd" d="M107.754 11.0868C114.121 11.0868 119.282 5.92565 119.282 -0.440956C119.282 -6.80771 114.121 -11.9688 107.754 -11.9688C101.388 -11.9688 96.2266 -6.80771 96.2266 -0.440956C96.2266 5.92565 101.388 11.0868 107.754 11.0868Z" fill="#265529"/>
<path fill-rule="evenodd" clip-rule="evenodd" d="M49.2798 11.7733H46.3821H43.4844L46.3821 7.07812L49.2798 11.7733Z" fill="#030712"/>
<path fill-rule="evenodd" clip-rule="evenodd" d="M49.2798 18.1172H46.3821H43.4844L46.3821 13.4219L49.2798 18.1172Z" fill="#030712"/>
<path fill-rule="evenodd" clip-rule="evenodd" d="M49.2798 24.4608H46.3821H43.4844L46.3821 19.7656L49.2798 24.4608Z" fill="#030712"/>
<path fill-rule="evenodd" clip-rule="evenodd" d="M49.2798 30.8124H46.3821H43.4844L46.3821 26.1172L49.2798 30.8124Z" fill="#030712"/>
<path fill-rule="evenodd" clip-rule="evenodd" d="M49.2798 37.1561H46.3821H43.4844L46.3821 32.4609L49.2798 37.1561Z" fill="#030712"/>
<path fill-rule="evenodd" clip-rule="evenodd" d="M9.71875 100.417V57.5H52.6355L43.3966 66.739H18.9578V91.178L9.71875 100.417Z" fill="#22C55E"/>
<path fill-rule="evenodd" clip-rule="evenodd" d="M60.6864 68.7702V68.7701C59.066 67.1496 56.4144 67.1496 54.7939 68.7701L48.6067 74.9573C46.9863 76.5778 46.9863 79.2294 48.6067 80.85C50.2272 82.4704 52.8788 82.4704 54.4993 80.85L60.6864 74.6628C62.3069 73.0423 62.3069 70.3906 60.6864 68.7702ZM45.5867 83.87V83.8699C43.9663 82.2494 41.3147 82.2494 39.6942 83.8699L8.5625 115.002H20.3477L45.5867 89.7625C47.2072 88.1421 47.2072 85.4904 45.5867 83.87Z" fill="#42A547"/>
<path d="M86.4688 38.4995C86.4688 38.8447 86.1889 39.1245 85.8438 39.1245C85.4986 39.1245 85.2188 38.8447 85.2188 38.4995C85.2188 35.46 86.451 32.708 88.4427 30.7162C90.4347 28.7242 93.1866 27.4922 96.226 27.4922C99.2655 27.4922 102.017 28.7243 104.009 30.7163C106.001 32.708 107.233 35.4601 107.233 38.4995C107.233 38.8447 106.953 39.1245 106.608 39.1245C106.263 39.1245 105.983 38.8447 105.983 38.4995C105.983 35.8051 104.891 33.3656 103.125 31.6001C101.36 29.8344 98.9204 28.7423 96.226 28.7423C93.5317 28.7423 91.0922 29.8344 89.3266 31.6C87.5609 33.3656 86.4688 35.805 86.4688 38.4995Z" fill="#030712"/>
</svg>

