<svg width="160" height="120" viewBox="0 0 160 120" fill="none" xmlns="http://www.w3.org/2000/svg">
<path fill-rule="evenodd" clip-rule="evenodd" d="M1.67578 -36H77.1006L113.627 0.526245C123.998 10.897 123.998 27.8675 113.627 38.2384C103.256 48.6093 86.2856 48.6093 75.9147 38.2384L1.67578 -36Z" fill="#E5E7EB"/>
<path fill-rule="evenodd" clip-rule="evenodd" d="M160 -4V155.999H0L160 -4Z" fill="#E5E7EB"/>
<path fill-rule="evenodd" clip-rule="evenodd" d="M67.3711 156.002H124.26V127.557C124.26 111.913 111.46 99.1133 95.8155 99.1133H95.8154C80.171 99.1133 67.3712 111.913 67.3712 127.557L67.3711 156.002Z" fill="#22C55E"/>
<path fill-rule="evenodd" clip-rule="evenodd" d="M95.8125 155.996H152.701V88.6668C152.701 73.0225 139.901 60.2227 124.257 60.2227H124.257C108.612 60.2227 95.8126 73.0225 95.8126 88.6668L95.8125 155.996Z" fill="#265529"/>
<path fill-rule="evenodd" clip-rule="evenodd" d="M95.8125 156.002H124.257V127.557C124.257 111.913 111.457 99.1133 95.8125 99.1133V156.002Z" fill="#42A547"/>
<path fill-rule="evenodd" clip-rule="evenodd" d="M159.999 40.7995V-36H83.1992L99.7325 -19.4668H143.466V24.2663L159.999 40.7995Z" fill="#42A547"/>
<path fill-rule="evenodd" clip-rule="evenodd" d="M85.6079 82.0818C91.0151 82.0818 95.3984 77.6986 95.3984 72.2914C95.3984 66.8843 91.0151 62.5009 85.6079 62.5009C80.2008 62.5009 75.8174 66.8842 75.8174 72.2914C75.8174 77.6986 80.2008 82.0818 85.6079 82.0818ZM85.6079 89.4344C95.0759 89.4344 102.751 81.7592 102.751 72.2914C102.751 62.8235 95.0759 55.1484 85.6079 55.1484C76.1402 55.1484 68.4648 62.8235 68.4648 72.2914C68.4648 81.7592 76.1402 89.4344 85.6079 89.4344Z" fill="white"/>
<path fill-rule="evenodd" clip-rule="evenodd" d="M110.479 31.8187L110.479 31.8185C113.413 28.8838 113.413 24.0819 110.479 21.147L99.2738 9.94219C96.3391 7.00755 91.537 7.00755 88.6024 9.94219H88.6021C85.6675 12.8768 85.6675 17.6788 88.6021 20.6137L99.8074 31.8188C102.742 34.7532 107.544 34.7532 110.479 31.8187ZM83.1329 4.47291H83.1331C86.0678 1.53827 86.0678 -3.26362 83.1331 -6.19839L53.3313 -36H31.9883L72.4617 4.47297C75.3962 7.40767 80.1984 7.40768 83.1329 4.47291Z" fill="#22C55E"/>
<path fill-rule="evenodd" clip-rule="evenodd" d="M149.299 51.0703C151.765 51.0703 153.765 53.0702 153.765 55.537C153.765 58.0038 151.765 60.0036 149.299 60.0036C146.832 60.0036 144.832 58.0038 144.832 55.537C144.832 53.0702 146.832 51.0703 149.299 51.0703Z" fill="#42A547"/>
<path fill-rule="evenodd" clip-rule="evenodd" d="M74.5721 14.8711C77.0389 14.8711 79.0388 16.871 79.0388 19.3378C79.0388 21.8046 77.0389 23.8044 74.5721 23.8044C72.1053 23.8044 70.1055 21.8046 70.1055 19.3378C70.1055 16.871 72.1053 14.8711 74.5721 14.8711Z" fill="#22C55E"/>
<path fill-rule="evenodd" clip-rule="evenodd" d="M123.171 52.5109C139.47 52.5109 152.682 39.2985 152.682 23H93.6602C93.6602 39.2985 106.873 52.5109 123.171 52.5109Z" fill="#030712"/>
<path fill-rule="evenodd" clip-rule="evenodd" d="M137.923 22.999C146.073 22.999 152.679 16.3928 152.679 8.24365C152.679 0.0943227 146.073 -6.51172 137.923 -6.51172C129.774 -6.51172 123.168 0.0943227 123.168 8.24365C123.168 16.3928 129.774 22.999 137.923 22.999Z" fill="#265529"/>
<path fill-rule="evenodd" clip-rule="evenodd" d="M63.0783 23.873H59.3693H55.6602L59.3693 17.8633L63.0783 23.873Z" fill="#030712"/>
<path fill-rule="evenodd" clip-rule="evenodd" d="M63.0783 31.9982H59.3693H55.6602L59.3693 25.9883L63.0783 31.9982Z" fill="#030712"/>
<path fill-rule="evenodd" clip-rule="evenodd" d="M63.0783 40.1113H59.3693H55.6602L59.3693 34.1016L63.0783 40.1113Z" fill="#030712"/>
<path fill-rule="evenodd" clip-rule="evenodd" d="M63.0783 48.2324H59.3693H55.6602L59.3693 42.2227L63.0783 48.2324Z" fill="#030712"/>
<path fill-rule="evenodd" clip-rule="evenodd" d="M63.0783 56.3574H59.3693H55.6602L59.3693 50.3477L63.0783 56.3574Z" fill="#030712"/>
<path fill-rule="evenodd" clip-rule="evenodd" d="M12.4375 137.332V82.3984H67.371L55.5451 94.2242H24.2634V125.506L12.4375 137.332Z" fill="#22C55E"/>
<path fill-rule="evenodd" clip-rule="evenodd" d="M77.6835 96.8253V96.8252C75.6093 94.751 72.2153 94.751 70.141 96.8252L62.2215 104.745C60.1473 106.819 60.1473 110.213 62.2215 112.287C64.2957 114.361 67.6897 114.361 69.764 112.287L77.6835 104.368C79.7577 102.294 79.7577 98.8995 77.6835 96.8253ZM58.3559 116.153V116.153C56.2817 114.078 52.8877 114.078 50.8134 116.153L10.9648 156.001H26.0499L58.3559 123.695C60.4301 121.621 60.4301 118.227 58.3559 116.153Z" fill="#42A547"/>
<path d="M110.674 58.0775C110.674 58.5193 110.316 58.8775 109.874 58.8775C109.432 58.8775 109.074 58.5193 109.074 58.0775C109.074 54.1869 110.651 50.6645 113.201 48.1149C115.751 45.5653 119.273 43.9883 123.164 43.9883C127.054 43.9883 130.576 45.5654 133.126 48.115C135.676 50.6645 137.253 54.187 137.253 58.0775C137.253 58.5193 136.895 58.8775 136.453 58.8775C136.011 58.8775 135.653 58.5193 135.653 58.0775C135.653 54.6287 134.255 51.5062 131.995 49.2463C129.735 46.9863 126.612 45.5884 123.164 45.5884C119.715 45.5884 116.592 46.9863 114.332 49.2462C112.072 51.5062 110.674 54.6285 110.674 58.0775Z" fill="#030712"/>
</svg>
