<svg width="250" height="160" viewBox="0 0 250 160" fill="none" xmlns="http://www.w3.org/2000/svg">
<path fill-rule="evenodd" clip-rule="evenodd" d="M2.61719 -70H120.468L177.541 -12.9275C193.745 3.27691 193.745 29.7934 177.541 45.9981C161.336 62.2026 134.82 62.2026 118.615 45.9981L2.61719 -70Z" fill="#E5E7EB"/>
<path fill-rule="evenodd" clip-rule="evenodd" d="M250 -20V230H0L250 -20Z" fill="#E5E7EB"/>
<path fill-rule="evenodd" clip-rule="evenodd" d="M105.266 229.998H194.154V185.553C194.154 161.109 174.154 141.109 149.71 141.109H149.71C125.265 141.109 105.266 161.109 105.266 185.553L105.266 229.998Z" fill="#22C55E"/>
<path fill-rule="evenodd" clip-rule="evenodd" d="M149.711 229.994H238.599V124.792C238.599 100.347 218.6 80.3477 194.155 80.3477H194.155C169.711 80.3477 149.711 100.347 149.711 124.792L149.711 229.994Z" fill="#265529"/>
<path fill-rule="evenodd" clip-rule="evenodd" d="M149.711 229.998H194.155V185.553C194.155 161.109 174.155 141.109 149.711 141.109V229.998Z" fill="#42A547"/>
<path fill-rule="evenodd" clip-rule="evenodd" d="M250 49.9999V-70H130L155.833 -44.1667H224.167V24.1666L250 49.9999Z" fill="#42A547"/>
<path fill-rule="evenodd" clip-rule="evenodd" d="M133.763 114.498C142.211 114.498 149.06 107.649 149.06 99.2C149.06 90.7514 142.211 83.9024 133.763 83.9024C125.314 83.9024 118.465 90.7513 118.465 99.2C118.465 107.649 125.314 114.498 133.763 114.498ZM133.763 125.986C148.556 125.986 160.549 113.994 160.549 99.2001C160.549 84.4064 148.556 72.4141 133.763 72.4141C118.969 72.4141 106.977 84.4064 106.977 99.2001C106.977 113.994 118.969 125.986 133.763 125.986Z" fill="white"/>
<path fill-rule="evenodd" clip-rule="evenodd" d="M172.618 35.9673L172.618 35.9669C177.203 31.3814 177.203 23.8785 172.618 19.2927L155.11 1.78502C150.524 -2.80038 143.021 -2.80038 138.436 1.78502H138.436C133.85 6.37041 133.85 13.8736 138.436 18.4594L155.944 35.9674C160.529 40.5524 168.032 40.5524 172.618 35.9673ZM129.89 -6.76077H129.89C134.476 -11.3462 134.476 -18.8492 129.89 -23.4348L83.3249 -70H49.9766L113.216 -6.76068C117.801 -2.17518 125.305 -2.17518 129.89 -6.76077Z" fill="#22C55E"/>
<path fill-rule="evenodd" clip-rule="evenodd" d="M233.28 66.0508C237.134 66.0508 240.259 69.1756 240.259 73.03C240.259 76.8844 237.134 80.0092 233.28 80.0092C229.426 80.0092 226.301 76.8844 226.301 73.03C226.301 69.1756 229.426 66.0508 233.28 66.0508Z" fill="#42A547"/>
<path fill-rule="evenodd" clip-rule="evenodd" d="M116.518 9.48438C120.373 9.48438 123.497 12.6092 123.497 16.4636C123.497 20.318 120.373 23.4428 116.518 23.4428C112.664 23.4428 109.539 20.318 109.539 16.4636C109.539 12.6092 112.664 9.48438 116.518 9.48438Z" fill="#22C55E"/>
<path fill-rule="evenodd" clip-rule="evenodd" d="M192.455 68.2946C217.921 68.2946 238.566 47.6502 238.566 22.1836H146.344C146.344 47.6501 166.988 68.2946 192.455 68.2946Z" fill="#030712"/>
<path fill-rule="evenodd" clip-rule="evenodd" d="M215.508 22.1811C228.242 22.1811 238.564 11.8588 238.564 -0.874313C238.564 -13.6077 228.242 -23.9297 215.508 -23.9297C202.775 -23.9297 192.453 -13.6077 192.453 -0.874313C192.453 11.8588 202.775 22.1811 215.508 22.1811Z" fill="#265529"/>
<path fill-rule="evenodd" clip-rule="evenodd" d="M98.5596 23.5465H92.7642H86.9688L92.7642 14.1562L98.5596 23.5465Z" fill="#030712"/>
<path fill-rule="evenodd" clip-rule="evenodd" d="M98.5596 36.242H92.7642H86.9688L92.7642 26.8516L98.5596 36.242Z" fill="#030712"/>
<path fill-rule="evenodd" clip-rule="evenodd" d="M98.5596 48.9293H92.7642H86.9688L92.7642 39.5391L98.5596 48.9293Z" fill="#030712"/>
<path fill-rule="evenodd" clip-rule="evenodd" d="M98.5596 61.6169H92.7642H86.9688L92.7642 52.2266L98.5596 61.6169Z" fill="#030712"/>
<path fill-rule="evenodd" clip-rule="evenodd" d="M98.5596 74.3122H92.7642H86.9688L92.7642 64.9219L98.5596 74.3122Z" fill="#030712"/>
<path fill-rule="evenodd" clip-rule="evenodd" d="M19.4297 200.837V115.004H105.263L86.7852 133.482H37.9077V182.359L19.4297 200.837Z" fill="#22C55E"/>
<path fill-rule="evenodd" clip-rule="evenodd" d="M121.38 137.536V137.536C118.14 134.295 112.836 134.295 109.595 137.536L97.2211 149.911C93.9802 153.152 93.9802 158.455 97.2211 161.696C100.462 164.937 105.765 164.937 109.006 161.696L121.38 149.322C124.621 146.081 124.621 140.777 121.38 137.536ZM91.1811 167.736V167.736C87.9402 164.495 82.6371 164.495 79.396 167.736L17.1328 229.999H40.7032L91.1811 179.521C94.4221 176.28 94.4221 170.977 91.1811 167.736Z" fill="#42A547"/>
<path d="M172.934 76.9949C172.934 77.6852 172.374 78.2449 171.684 78.2449C170.993 78.2449 170.434 77.6852 170.434 76.9949C170.434 70.9159 172.898 65.4121 176.881 61.4284C180.865 57.4446 186.369 54.9805 192.448 54.9805C198.527 54.9805 204.031 57.4447 208.015 61.4286C211.998 65.4121 214.463 70.9161 214.463 76.9949C214.463 77.6852 213.903 78.2449 213.213 78.2449C212.522 78.2449 211.962 77.6852 211.962 76.9949C211.962 71.6062 209.778 66.7273 206.247 63.1962C202.716 59.6649 197.837 57.4807 192.448 57.4807C187.059 57.4807 182.18 59.6649 178.649 63.196C175.118 66.7273 172.934 71.606 172.934 76.9949Z" fill="#030712"/>
</svg>
