<svg width="60" height="60" viewBox="0 0 60 60" fill="none" xmlns="http://www.w3.org/2000/svg">
<path fill-rule="evenodd" clip-rule="evenodd" d="M0.625 0H28.9087L42.6059 13.6971C46.4949 17.586 46.4949 23.9498 42.6059 27.8389C38.7169 31.7279 32.3531 31.7279 28.464 27.8389L0.625 0Z" fill="#E5E7EB"/>
<path fill-rule="evenodd" clip-rule="evenodd" d="M59.9988 12V71.9984H0L59.9988 12Z" fill="#E5E7EB"/>
<path fill-rule="evenodd" clip-rule="evenodd" d="M25.2578 72.0046H46.5906V61.3382C46.5906 55.4717 41.7908 50.6719 35.9243 50.6719H35.9242C30.0577 50.6719 25.2578 55.4717 25.2578 61.3382L25.2578 72.0046Z" fill="#22C55E"/>
<path fill-rule="evenodd" clip-rule="evenodd" d="M35.9297 72.0001H57.2625V46.7523C57.2625 40.8858 52.4627 36.0859 46.5962 36.0859H46.5961C40.7296 36.0859 35.9297 40.8858 35.9297 46.7523L35.9297 72.0001Z" fill="#265529"/>
<path fill-rule="evenodd" clip-rule="evenodd" d="M35.9297 72.0046H46.5961V61.3382C46.5961 55.4717 41.7962 50.6719 35.9297 50.6719V72.0046Z" fill="#42A547"/>
<path fill-rule="evenodd" clip-rule="evenodd" d="M60.0026 28.7993V0H31.2031L37.403 6.19983H53.8027V22.5994L60.0026 28.7993Z" fill="#42A547"/>
<path fill-rule="evenodd" clip-rule="evenodd" d="M32.1004 44.2795C34.128 44.2795 35.7718 42.6358 35.7718 40.6082C35.7718 38.5805 34.1281 36.9368 32.1004 36.9368C30.0728 36.9368 28.429 38.5805 28.429 40.6082C28.429 42.6358 30.0728 44.2795 32.1004 44.2795ZM32.1004 47.0367C35.6508 47.0367 38.5289 44.1585 38.5289 40.6082C38.5289 37.0578 35.6508 34.1797 32.1004 34.1797C28.5501 34.1797 25.6719 37.0578 25.6719 40.6082C25.6719 44.1585 28.5501 47.0367 32.1004 47.0367Z" fill="white"/>
<path fill-rule="evenodd" clip-rule="evenodd" d="M41.4256 25.4315L41.4256 25.4314C42.526 24.3309 42.526 22.5303 41.4256 21.4297L37.2237 17.228C36.1232 16.1275 34.3225 16.1275 33.2221 17.228H33.222C32.1215 18.3284 32.1215 20.1292 33.222 21.2297L37.4238 25.4315C38.5243 26.5319 40.325 26.5319 41.4256 25.4315ZM31.171 15.177H31.1711C32.2716 14.0766 32.2716 12.2759 31.1711 11.1754L19.9957 0H11.9922L27.1694 15.1771C28.2699 16.2776 30.0706 16.2776 31.171 15.177Z" fill="#22C55E"/>
<path fill-rule="evenodd" clip-rule="evenodd" d="M55.9875 32.6562C56.9125 32.6562 57.6624 33.4062 57.6624 34.3312C57.6624 35.2562 56.9125 36.0062 55.9875 36.0062C55.0624 36.0062 54.3125 35.2562 54.3125 34.3312C54.3125 33.4062 55.0624 32.6562 55.9875 32.6562Z" fill="#42A547"/>
<path fill-rule="evenodd" clip-rule="evenodd" d="M27.964 19.0781C28.8891 19.0781 29.639 19.8281 29.639 20.7531C29.639 21.6781 28.8891 22.4281 27.964 22.4281C27.039 22.4281 26.2891 21.6781 26.2891 20.7531C26.2891 19.8281 27.039 19.0781 27.964 19.0781Z" fill="#22C55E"/>
<path fill-rule="evenodd" clip-rule="evenodd" d="M46.1914 33.1914C52.3032 33.1914 57.2578 28.2368 57.2578 22.125H35.125C35.125 28.2368 40.0796 33.1914 46.1914 33.1914Z" fill="#030712"/>
<path fill-rule="evenodd" clip-rule="evenodd" d="M51.7207 22.1288C54.7766 22.1288 57.2539 19.6515 57.2539 16.5957C57.2539 13.5397 54.7766 11.0625 51.7207 11.0625C48.6648 11.0625 46.1875 13.5397 46.1875 16.5957C46.1875 19.6515 48.6648 22.1288 51.7207 22.1288Z" fill="#265529"/>
<path fill-rule="evenodd" clip-rule="evenodd" d="M23.6568 22.4567H22.2659H20.875L22.2659 20.2031L23.6568 22.4567Z" fill="#030712"/>
<path fill-rule="evenodd" clip-rule="evenodd" d="M23.6568 25.5037H22.2659H20.875L22.2659 23.25L23.6568 25.5037Z" fill="#030712"/>
<path fill-rule="evenodd" clip-rule="evenodd" d="M23.6568 28.5427H22.2659H20.875L22.2659 26.2891L23.6568 28.5427Z" fill="#030712"/>
<path fill-rule="evenodd" clip-rule="evenodd" d="M23.6568 31.5896H22.2659H20.875L22.2659 29.3359L23.6568 31.5896Z" fill="#030712"/>
<path fill-rule="evenodd" clip-rule="evenodd" d="M23.6568 34.6364H22.2659H20.875L22.2659 32.3828L23.6568 34.6364Z" fill="#030712"/>
<path fill-rule="evenodd" clip-rule="evenodd" d="M4.66406 64.9979V44.3984H25.2637L20.8291 48.833H9.0987V60.5633L4.66406 64.9979Z" fill="#22C55E"/>
<path fill-rule="evenodd" clip-rule="evenodd" d="M29.1284 49.81V49.8099C28.3506 49.0321 27.0778 49.0321 26.3 49.8099L23.3302 52.7797C22.5524 53.5575 22.5524 54.8302 23.3302 55.6081C24.1081 56.3859 25.3808 56.3859 26.1586 55.6081L29.1284 52.6383C29.9062 51.8605 29.9062 50.5878 29.1284 49.81ZM21.8807 57.0576V57.0576C21.1029 56.2798 19.8301 56.2798 19.0523 57.0576L4.10938 72.0004H9.76617L21.8807 59.8859C22.6585 59.1082 22.6585 57.8354 21.8807 57.0576Z" fill="#42A547"/>
<path fill-rule="evenodd" clip-rule="evenodd" d="M34.7741 3.10938C35.0333 3.10938 35.2435 3.31951 35.2435 3.57875C35.2435 3.83802 35.0333 4.04818 34.7741 4.04818C34.5148 4.04818 34.3047 3.83802 34.3047 3.57875C34.3047 3.31951 34.5149 3.10938 34.7741 3.10938ZM43.071 3.10938C43.3303 3.10938 43.5404 3.31951 43.5404 3.57875C43.5404 3.83802 43.3303 4.04818 43.071 4.04818C42.8117 4.04818 42.6016 3.83802 42.6016 3.57875C42.6016 3.31951 42.8117 3.10938 43.071 3.10938ZM37.5398 3.10938C37.799 3.10938 38.0092 3.31951 38.0092 3.57875C38.0092 3.83802 37.799 4.04818 37.5398 4.04818C37.2805 4.04818 37.0704 3.83802 37.0704 3.57875C37.0704 3.31951 37.2805 3.10938 37.5398 3.10938ZM40.3054 3.10938C40.5646 3.10938 40.7748 3.31951 40.7748 3.57875C40.7748 3.83802 40.5646 4.04818 40.3054 4.04818C40.0461 4.04818 39.836 3.83802 39.836 3.57875C39.836 3.31951 40.0461 3.10938 40.3054 3.10938ZM32.0085 3.10938C32.2677 3.10938 32.4779 3.31951 32.4779 3.57875C32.4779 3.83802 32.2677 4.04818 32.0085 4.04818C31.7492 4.04818 31.5391 3.83802 31.5391 3.57875C31.5391 3.31951 31.7492 3.10938 32.0085 3.10938Z" fill="#030712"/>
<path d="M9.4718 10.0015L11.547 7.10156H12.147L10.0718 10.0015H9.4718ZM11.5216 10.0015L13.5969 7.10156H14.1969L12.1217 10.0015H11.5216ZM13.5716 10.0015L15.6468 7.10156H16.2469L14.1716 10.0015H13.5716ZM15.6214 10.0015L17.6967 7.10156H18.2967L16.2215 10.0015H15.6214ZM17.6713 10.0015L19.7466 7.10156H20.3466L18.2714 10.0015H17.6713ZM19.7212 10.0015L21.7965 7.10156H22.3965L20.3212 10.0015H19.7212ZM7.42188 10.0015L9.49714 7.10156H10.0972L8.02191 10.0015H7.42188Z" fill="#030712"/>
<path d="M41.5063 35.2833C41.5063 35.449 41.3719 35.5833 41.2063 35.5833C41.0406 35.5833 40.9062 35.449 40.9062 35.2833C40.9062 33.8244 41.4977 32.5035 42.4537 31.5475C43.4099 30.5914 44.7307 30 46.1896 30C47.6485 30 48.9694 30.5914 49.9255 31.5475C50.8816 32.5035 51.473 33.8244 51.473 35.2833C51.473 35.449 51.3387 35.5833 51.173 35.5833C51.0073 35.5833 50.873 35.449 50.873 35.2833C50.873 33.9901 50.3487 32.8192 49.5013 31.9717C48.6538 31.1242 47.4829 30.6 46.1896 30.6C44.8964 30.6 43.7254 31.1242 42.878 31.9717C42.0305 32.8192 41.5063 33.99 41.5063 35.2833Z" fill="#030712"/>
</svg>
