<svg width="320" height="240" viewBox="0 0 320 240" fill="none" xmlns="http://www.w3.org/2000/svg">
<path fill-rule="evenodd" clip-rule="evenodd" d="M56.527 157.289L58.959 168.105L48.375 164.801L56.527 157.289Z" fill="#67C16B"/>
<path d="M58.959 168.105L56.527 157.289L48.375 164.801L58.959 168.105Z" stroke="#2E7D32" stroke-width="1.7008"/>
<path d="M52.6782 162.615C43.5662 154.535 38.4062 145.303 38.4062 135.503C38.4062 103.671 92.8623 77.8711 160.03 77.8711C227.206 77.8711 281.654 103.671 281.654 135.503C281.654 145.759 275.998 155.399 266.078 163.743" stroke="#030712" stroke-width="1.7008"/>
<path d="M100.366 202.204C94.8143 200.716 89.5342 199.036 84.5742 197.172C71.7982 192.38 61.1103 186.396 53.2463 179.58C43.7823 171.38 38.4062 161.972 38.4062 151.972C38.4062 120.14 92.8623 94.3398 160.03 94.3398C227.206 94.3398 281.654 120.14 281.654 151.972C281.654 183.804 227.206 209.604 160.03 209.604C146.478 209.604 133.446 208.556 121.27 206.612" stroke="#030712" stroke-width="1.7008"/>
<path d="M190.919 191.26C181.055 192.484 170.703 193.132 160.031 193.132C119.831 193.132 84.1909 183.892 62.0469 169.652" stroke="#030712" stroke-width="1.7008"/>
<path fill-rule="evenodd" clip-rule="evenodd" d="M199.359 185.66C197.151 185.66 195.359 187.452 195.359 189.66C195.359 191.868 197.151 193.66 199.359 193.66C201.567 193.66 203.359 191.868 203.359 189.66C203.359 187.452 201.567 185.66 199.359 185.66Z" fill="#030712"/>
<path fill-rule="evenodd" clip-rule="evenodd" d="M81.7344 158.272V92.4637C81.7344 89.1757 86.6464 86.5117 92.7104 86.5117H211.646C217.71 86.5117 222.63 89.1757 222.63 92.4637V158.272C222.63 161.56 217.71 164.224 211.646 164.224H92.7104C86.6464 164.224 81.7344 161.56 81.7344 158.272Z" fill="white"/>
<path d="M81.7344 92.4637V158.272C81.7344 161.56 86.6464 164.224 92.7104 164.224H211.646C217.71 164.224 222.63 161.56 222.63 158.272V92.4637C222.63 89.1757 217.71 86.5117 211.646 86.5117H92.7104C86.6464 86.5117 81.7344 89.1757 81.7344 92.4637Z" stroke="#030712" stroke-width="1.7008"/>
<path fill-rule="evenodd" clip-rule="evenodd" d="M89.8624 77.9883H214.51C218.99 77.9883 222.63 81.6283 222.63 86.1163V97.5083H81.7344V86.1163C81.7344 81.6283 85.3744 77.9883 89.8624 77.9883Z" fill="#67C16B"/>
<path d="M214.51 77.9883H89.8624C85.3744 77.9883 81.7344 81.6283 81.7344 86.1163V97.5083H222.63V86.1163C222.63 81.6283 218.99 77.9883 214.51 77.9883Z" stroke="#2E7D32" stroke-width="1.7008"/>
<path fill-rule="evenodd" clip-rule="evenodd" d="M212.578 156.357C213.57 160.765 217.954 163.541 222.362 162.557L235.45 159.613C239.858 158.629 242.634 154.237 241.642 149.837L239.41 139.861C237.658 132.053 229.874 127.125 222.058 128.877L221.322 129.045C213.514 130.797 208.586 138.581 210.338 146.389L212.578 156.357ZM235.112 151.299L232.872 141.331C231.928 137.131 227.736 134.475 223.528 135.419L222.792 135.579C218.592 136.523 215.936 140.715 216.88 144.923L219.12 154.891C219.296 155.675 220.104 156.195 220.896 156.019L233.984 153.075C234.768 152.899 235.288 152.091 235.112 151.299Z" fill="#9CA3AF"/>
<path d="M212.578 156.357C213.57 160.765 217.954 163.541 222.362 162.557L235.45 159.613C239.858 158.629 242.634 154.237 241.642 149.837L239.41 139.861C237.658 132.053 229.874 127.125 222.058 128.877L221.322 129.045C213.514 130.797 208.586 138.581 210.338 146.389L212.578 156.357ZM235.112 151.299L232.872 141.331C231.928 137.131 227.736 134.475 223.528 135.419L222.792 135.579C218.592 136.523 215.936 140.715 216.88 144.923L219.12 154.891C219.296 155.675 220.104 156.195 220.896 156.019L233.984 153.075C234.768 152.899 235.288 152.091 235.112 151.299Z" stroke="#030712" stroke-width="1.7008"/>
<path fill-rule="evenodd" clip-rule="evenodd" d="M228.339 183.134L238.838 180.777C247.548 178.822 253.021 170.181 251.065 161.47L248.308 149.191C248.205 148.733 248.013 148.299 247.743 147.915C247.473 147.531 247.13 147.204 246.733 146.953C246.336 146.702 245.894 146.531 245.431 146.451C244.968 146.371 244.494 146.382 244.036 146.486L208.98 154.356C208.522 154.459 208.088 154.651 207.704 154.921C207.32 155.191 206.993 155.535 206.742 155.931C206.491 156.328 206.32 156.77 206.24 157.233C206.16 157.696 206.172 158.17 206.275 158.628L209.031 170.906C210.987 179.618 219.627 185.09 228.339 183.134Z" fill="#67C16B"/>
<path d="M248.537 146.348L206.5 155.785L213.208 185.664L255.245 176.226L248.537 146.348Z" stroke="#2E7D32" stroke-width="1.7008"/>
<path fill-rule="evenodd" clip-rule="evenodd" d="M229.411 155.773C226.355 155.773 223.875 158.253 223.875 161.309C223.875 164.365 226.355 166.845 229.411 166.845C232.467 166.845 234.947 164.365 234.947 161.309C234.947 158.253 232.467 155.773 229.411 155.773Z" fill="#030712"/>
<path fill-rule="evenodd" clip-rule="evenodd" d="M231.12 162.398L233.688 170.758C233.944 171.886 233.232 173.014 232.104 173.262C230.968 173.518 229.848 172.806 229.592 171.678L228.344 163.022L231.12 162.398Z" fill="#030712"/>
<path d="M115.591 134.117L114.671 135.725C114.399 136.189 114.127 136.685 114.159 137.221C114.199 137.757 114.695 138.293 115.215 138.149" stroke="#030712" stroke-width="0.34"/>
<path fill-rule="evenodd" clip-rule="evenodd" d="M149.469 113.992H203.269V106.336H149.469V113.992Z" fill="#9CA3AF"/>
<path fill-rule="evenodd" clip-rule="evenodd" d="M149.469 124.501H203.269V119.461H149.469V124.501ZM149.469 134.819H203.269V129.779H149.469V134.819ZM149.469 145.137H187.509V140.097H149.469V145.137Z" fill="#E5E7EB"/>
<path fill-rule="evenodd" clip-rule="evenodd" d="M160.943 93.2668H143.415C141.183 93.2668 139.375 91.4588 139.375 89.2268V76.8828H164.975V89.2268C164.975 91.4588 163.167 93.2668 160.943 93.2668Z" fill="#2E7D32"/>
<path fill-rule="evenodd" clip-rule="evenodd" d="M147.421 60.7553H156.821C157.429 60.7553 158.021 60.5153 158.453 60.0833C158.885 59.6513 159.125 59.0593 159.125 58.4513V53.4993C159.125 52.8913 158.885 52.2993 158.453 51.8673C158.021 51.4353 157.429 51.1953 156.821 51.1953H147.421C146.813 51.1953 146.221 51.4353 145.789 51.8673C145.357 52.2993 145.117 52.8913 145.117 53.4993V58.4513C145.117 59.0593 145.357 59.6513 145.789 60.0833C146.221 60.5153 146.813 60.7553 147.421 60.7553Z" fill="#9CA3AF"/>
<path d="M159.974 52.043H145.969V59.9006H159.974V52.043Z" stroke="#030712" stroke-width="1.7008"/>
<path fill-rule="evenodd" clip-rule="evenodd" d="M145.072 89.5346H159.168C159.718 89.5325 160.245 89.3124 160.634 88.9225C161.022 88.5327 161.24 88.0048 161.24 87.4546V60.8066C161.24 60.2563 161.022 59.7285 160.634 59.3386C160.245 58.9488 159.718 58.7287 159.168 58.7266H145.072C144.799 58.726 144.528 58.7795 144.276 58.8838C144.023 58.9882 143.793 59.1414 143.6 59.3346C143.407 59.5279 143.254 59.7574 143.149 60.01C143.045 60.2626 142.992 60.5333 142.992 60.8066V87.4546C142.992 87.7279 143.045 87.9986 143.149 88.2512C143.254 88.5038 143.407 88.7333 143.6 88.9265C143.793 89.1198 144.023 89.273 144.276 89.3773C144.528 89.4817 144.799 89.5351 145.072 89.5346Z" fill="#E5E7EB"/>
<path d="M162.094 59.5742H143.844V88.679H162.094V59.5742Z" stroke="#030712" stroke-width="1.7008"/>
<path fill-rule="evenodd" clip-rule="evenodd" d="M114.873 101.184C100.929 101.184 89.625 112.488 89.625 126.432C89.625 140.368 100.929 151.672 114.873 151.672C128.809 151.672 140.113 140.368 140.113 126.432C140.113 112.488 128.809 101.184 114.873 101.184Z" fill="#E5E7EB"/>
<path fill-rule="evenodd" clip-rule="evenodd" d="M146.836 80.3622C146.836 78.9598 147.393 77.6147 148.385 76.623C149.376 75.6313 150.721 75.0742 152.124 75.0742V85.6502C150.721 85.6502 149.376 85.0931 148.385 84.1014C147.393 83.1097 146.836 81.7647 146.836 80.3622Z" fill="#67C16B"/>
<path d="M152.124 75.0742C150.722 75.0742 149.377 75.6314 148.385 76.6232C147.393 77.6149 146.836 78.9601 146.836 80.3626C146.836 81.7652 147.393 83.1103 148.385 84.1021C149.377 85.0938 150.722 85.651 152.124 85.651V75.0742Z" stroke="#2E7D32" stroke-width="1.7008"/>
<path fill-rule="evenodd" clip-rule="evenodd" d="M152.117 75.0742C153.52 75.0742 154.865 75.6314 155.857 76.6232C156.848 77.6149 157.406 78.9601 157.406 80.3626C157.406 81.7652 156.848 83.1103 155.857 84.1021C154.865 85.0938 153.52 85.651 152.117 85.651V75.0742Z" fill="#67C16B"/>
<path d="M157.405 80.3622C157.405 78.9598 156.848 77.6147 155.856 76.623C154.865 75.6313 153.52 75.0742 152.117 75.0742V85.6502C153.52 85.6502 154.865 85.0931 155.856 84.1014C156.848 83.1097 157.405 81.7647 157.405 80.3622Z" stroke="#2E7D32" stroke-width="1.7008"/>
<path fill-rule="evenodd" clip-rule="evenodd" d="M128.205 137.179C125.293 140.867 120.549 143.275 115.197 143.275C113.773 143.275 112.389 143.099 111.069 142.779C110.861 142.731 110.669 142.675 110.469 142.619C110.453 142.619 110.437 142.611 110.421 142.611C106.845 141.55 103.724 139.329 101.549 136.299C101.517 136.259 101.493 136.219 101.461 136.171C99.9886 133.947 99.1406 131.323 99.1406 128.531C99.1406 127.563 99.2446 126.619 99.4366 125.699C101.397 126.267 103.437 126.555 105.485 126.547C109.917 126.547 113.941 125.251 116.925 123.147C118.461 122.091 119.757 120.723 120.733 119.131C120.741 119.123 120.741 119.115 120.749 119.099C120.917 118.851 121.253 118.795 121.501 118.963C127.405 122.979 130.085 130.299 128.205 137.179Z" fill="white"/>
<path d="M115.197 143.276C120.549 143.276 125.293 140.868 128.205 137.18C130.085 130.3 127.405 122.98 121.501 118.964C121.442 118.923 121.377 118.895 121.307 118.88C121.238 118.864 121.166 118.863 121.096 118.876C121.027 118.888 120.96 118.915 120.9 118.953C120.84 118.992 120.789 119.042 120.749 119.1C120.741 119.116 120.741 119.124 120.733 119.132C119.757 120.724 118.461 122.092 116.925 123.148C113.941 125.252 109.917 126.548 105.485 126.548C103.437 126.556 101.397 126.268 99.4366 125.7C99.2446 126.62 99.1406 127.564 99.1406 128.532C99.1406 131.324 99.9886 133.948 101.461 136.172C101.493 136.22 101.517 136.26 101.549 136.3C103.693 139.284 106.797 141.54 110.421 142.612C110.437 142.612 110.453 142.62 110.469 142.62C110.669 142.676 110.861 142.732 111.069 142.78C112.389 143.1 113.773 143.276 115.197 143.276Z" stroke="#030712" stroke-width="1.1336"/>
<path fill-rule="evenodd" clip-rule="evenodd" d="M100.007 119.646C103.903 111.598 113.375 107.958 121.655 111.318C127.975 113.878 132.119 120.014 132.135 126.838C132.135 130.798 130.727 134.63 128.151 137.646C130.087 130.878 127.575 123.638 121.871 119.518C121.855 119.502 121.839 119.494 121.823 119.486C121.383 119.198 120.799 119.326 120.511 119.774C119.559 121.214 118.343 122.462 116.919 123.438C113.935 125.542 109.911 126.838 105.479 126.838C104.655 126.838 103.823 126.79 102.999 126.694C102.239 128.798 101.847 131.014 101.855 133.254C101.847 134.67 102.007 136.078 102.311 137.454C99.4427 134.186 97.9694 129.924 98.207 125.582C97.815 125.446 97.4229 125.294 97.0469 125.126C96.5939 124.924 96.1483 124.705 95.7109 124.47C95.3349 124.262 95.0389 123.934 94.8709 123.542C94.4309 122.55 94.8869 121.39 95.8789 120.958C97.2069 120.366 98.591 119.926 100.007 119.646Z" fill="#030712"/>
<path d="M121.662 111.318C113.382 107.958 103.91 111.598 100.014 119.646C98.5979 119.926 97.2139 120.366 95.8859 120.958C95.6496 121.061 95.4359 121.21 95.2572 121.396C95.0786 121.581 94.9384 121.801 94.8447 122.041C94.751 122.281 94.7057 122.537 94.7114 122.795C94.7171 123.053 94.7737 123.307 94.8779 123.542C95.0459 123.934 95.3419 124.262 95.7179 124.47C96.1499 124.702 96.5899 124.918 97.0539 125.126C97.4299 125.294 97.8219 125.446 98.2139 125.582C97.9763 129.924 99.4497 134.186 102.318 137.454C102.01 136.076 101.857 134.667 101.862 133.254C101.854 131.014 102.246 128.798 103.006 126.694C103.83 126.79 104.662 126.838 105.486 126.838C109.918 126.838 113.942 125.542 116.926 123.438C118.35 122.462 119.566 121.214 120.518 119.774C120.806 119.326 121.39 119.198 121.83 119.486C121.846 119.494 121.862 119.502 121.878 119.518C124.662 121.527 126.759 124.346 127.883 127.59C129.007 130.834 129.103 134.346 128.158 137.646C130.734 134.63 132.142 130.798 132.142 126.838C132.126 120.014 127.982 113.878 121.662 111.318Z" stroke="#030712" stroke-width="0.5672"/>
<path d="M110.45 133.514C110.45 132.714 109.81 132.074 109.018 132.074C108.218 132.074 107.578 132.714 107.578 133.514M122.713 133.514C122.713 132.714 122.073 132.074 121.281 132.074C120.481 132.074 119.841 132.714 119.841 133.514" stroke="#030712" stroke-width="1.1336"/>
<path d="M115.197 113.777C106.333 113.777 99.1406 120.377 99.1406 128.521C99.1406 136.665 106.333 143.265 115.197 143.265C124.069 143.265 131.261 136.665 131.261 128.521C131.261 120.377 124.069 113.777 115.197 113.777Z" stroke="#030712" stroke-width="1.1336"/>
<path fill-rule="evenodd" clip-rule="evenodd" d="M98.443 123.855C97.6646 123.874 96.9242 124.195 96.38 124.752C95.8359 125.309 95.5312 126.057 95.5312 126.835C95.5312 127.614 95.8359 128.362 96.38 128.919C96.9242 129.476 97.6646 129.797 98.443 129.815C99.2344 129.815 99.9934 129.501 100.553 128.941C101.113 128.382 101.427 127.623 101.427 126.831C101.427 125.191 100.091 123.855 98.443 123.855Z" fill="#030712"/>
<path fill-rule="evenodd" clip-rule="evenodd" d="M115.202 140.234C116.45 140.234 117.466 139.354 117.466 138.258H112.938C112.938 139.354 113.954 140.234 115.202 140.234Z" fill="white"/>
<path d="M115.202 140.234C116.45 140.234 117.466 139.354 117.466 138.258H112.938C112.938 139.354 113.954 140.234 115.202 140.234Z" stroke="#030712" stroke-width="1.2"/>
<path fill-rule="evenodd" clip-rule="evenodd" d="M252.9 107.417L247.172 108.369C246.276 108.521 245.596 107.569 246.02 106.769L248.756 101.641C248.924 101.321 248.924 100.945 248.756 100.617L246.084 95.4649C245.668 94.6569 246.356 93.7209 247.252 93.8729L252.972 94.8889C253.324 94.9529 253.692 94.8329 253.948 94.5769L258.02 90.4409C258.66 89.7929 259.764 90.1609 259.892 91.0649L260.7 96.8089C260.748 97.1689 260.972 97.4809 261.292 97.6409L266.484 100.241C267.3 100.649 267.292 101.817 266.476 102.217L261.26 104.753C260.932 104.913 260.7 105.225 260.652 105.577L259.78 111.321C259.644 112.225 258.54 112.577 257.9 111.921L253.876 107.745C253.62 107.481 253.26 107.361 252.9 107.417Z" fill="white"/>
<path d="M247.172 108.369L252.9 107.417C253.26 107.361 253.62 107.481 253.876 107.745L257.9 111.921C258.54 112.577 259.644 112.225 259.78 111.321L260.652 105.577C260.7 105.225 260.932 104.913 261.26 104.753L266.476 102.217C267.292 101.817 267.3 100.649 266.484 100.241L261.292 97.6409C260.972 97.4809 260.748 97.1689 260.7 96.8089L259.892 91.0649C259.764 90.1609 258.66 89.7929 258.02 90.4409L253.948 94.5769C253.692 94.8329 253.324 94.9529 252.972 94.8889L247.252 93.8729C246.356 93.7209 245.668 94.6569 246.084 95.4649L248.756 100.617C248.924 100.945 248.924 101.321 248.756 101.641L246.02 106.769C245.596 107.569 246.276 108.521 247.172 108.369Z" stroke="#030712" stroke-width="1.7008"/>
<path fill-rule="evenodd" clip-rule="evenodd" d="M110.453 200.395C108.245 200.395 106.453 202.187 106.453 204.395C106.453 206.603 108.245 208.395 110.453 208.395C112.661 208.395 114.453 206.603 114.453 204.395C114.453 202.187 112.661 200.395 110.453 200.395Z" fill="white"/>
<path d="M110.453 200.395C108.245 200.395 106.453 202.187 106.453 204.395C106.453 206.603 108.245 208.395 110.453 208.395C112.661 208.395 114.453 206.603 114.453 204.395C114.453 202.187 112.661 200.395 110.453 200.395Z" stroke="#030712" stroke-width="1.7008"/>
<path fill-rule="evenodd" clip-rule="evenodd" d="M122.712 105.305C119.552 105.305 116.992 107.865 116.992 111.025C116.992 114.177 119.552 116.737 122.712 116.737C125.864 116.737 128.424 114.177 128.424 111.025C128.424 107.865 125.864 105.305 122.712 105.305Z" fill="#030712"/>
<path d="M65.2969 85.57L72.0009 90.154M74.3609 71.8164L79.3609 78.2164M89.8057 63.6172L90.2137 71.7292" stroke="#030712" stroke-width="1.6"/>
</svg>
